<?xml version="1.0" standalone="no"?>
<!DOCTYPE svg PUBLIC "-//W3C//DTD SVG 20010904//EN"
 "http://www.w3.org/TR/2001/REC-SVG-20010904/DTD/svg10.dtd">
<svg version="1.0" xmlns="http://www.w3.org/2000/svg"
 width="186.000000pt" height="112.000000pt" viewBox="0 0 186.000000 112.000000"
 preserveAspectRatio="xMidYMid meet">

<g transform="translate(0.000000,112.000000) scale(0.100000,-0.100000)"
fill="#000000" stroke="none">
<path d="M145 983 c-19 -46 -77 -107 -116 -124 l-29 -11 0 -294 0 -294 38 -19
c46 -23 99 -81 108 -116 l6 -25 767 0 767 0 22 45 c22 45 86 101 129 111 l23
6 0 292 0 291 -45 19 c-51 20 -111 84 -120 127 l-7 29 -764 0 -764 0 -15 -37z
m773 10 l-726 -3 -12 -34 c-12 -37 -83 -109 -119 -121 -21 -6 -21 -9 -21 -279
l0 -274 30 -12 c35 -14 110 -93 110 -115 0 -13 84 -15 739 -15 l739 0 12 30
c15 37 69 85 115 105 l35 14 0 265 0 266 -44 20 c-23 12 -55 33 -69 48 -27 28
-66 109 -48 97 6 -3 11 -12 11 -18 0 -31 53 -87 105 -112 l55 -27 0 -273 0
-273 -55 -27 c-53 -25 -105 -82 -105 -112 0 -10 -150 -13 -745 -13 l-744 0
-17 35 c-19 40 -77 93 -112 101 l-22 6 0 283 0 283 23 6 c37 9 93 63 116 111
l21 45 728 -2 727 -3 -727 -2z m-600 -366 c3 -14 -1 -17 -21 -12 -27 7 -52
-15 -27 -23 18 -6 60 -49 60 -61 0 -22 -33 -41 -71 -41 -31 0 -39 4 -39 18 0
15 6 18 30 14 17 -2 30 0 30 5 0 5 -13 19 -30 31 -54 40 -32 95 35 89 20 -1
31 -8 33 -20z m130 -15 c3 -29 6 -33 30 -30 22 2 28 9 30 36 2 20 9 32 18 32
11 0 14 -17 14 -80 0 -64 -3 -80 -15 -80 -10 0 -15 10 -15 30 0 27 -3 30 -30
30 -27 0 -30 -3 -30 -30 0 -23 -4 -30 -20 -30 -18 0 -20 7 -20 81 0 71 2 80
18 77 11 -2 18 -14 20 -36z m360 16 c2 -13 -5 -17 -35 -20 -33 -3 -38 -6 -41
-31 -5 -38 15 -60 50 -55 22 4 28 1 28 -14 0 -26 -73 -25 -100 2 -49 49 -5
145 63 138 20 -2 33 -9 35 -20z m129 -54 c15 -24 15 -29 2 -53 -12 -21 -22
-26 -54 -26 -32 0 -42 5 -54 26 -13 24 -13 29 2 53 13 20 26 26 52 26 26 0 39
-6 52 -26z m201 -31 c2 -42 0 -53 -12 -53 -10 0 -16 12 -18 38 -2 25 -8 37
-18 37 -10 0 -16 -12 -18 -37 -2 -24 -8 -38 -17 -38 -9 0 -15 14 -17 38 -2 25
-8 37 -18 37 -10 0 -16 -12 -18 -37 -2 -25 -8 -38 -18 -38 -10 0 -14 14 -14
54 l0 54 83 -2 82 -1 3 -52z m142 31 c14 -37 -7 -78 -42 -82 -19 -2 -28 -10
-30 -25 -2 -12 -11 -23 -20 -25 -16 -3 -18 6 -18 77 l0 81 50 0 c45 0 52 -3
60 -26z m108 14 c7 -7 12 -32 12 -56 l0 -43 -47 3 c-44 3 -48 5 -51 31 -3 23
1 28 27 33 17 4 31 11 31 16 0 6 -11 7 -25 4 -18 -5 -25 -2 -25 9 0 19 60 21
78 3z m140 -46 c3 -47 1 -53 -15 -50 -13 2 -19 14 -21 41 -5 53 -32 51 -32 -3
0 -33 -3 -40 -20 -40 -18 0 -20 7 -20 55 l0 54 53 -2 52 -2 3 -53z m67 18 l12
-35 7 33 c7 31 30 52 43 39 7 -8 -36 -117 -55 -139 -18 -22 -52 -24 -52 -3 0
8 7 15 15 15 21 0 19 29 -5 85 l-20 46 22 -3 c14 -2 25 -15 33 -38z m-1215
-56 c0 -8 -9 -14 -20 -14 -22 0 -28 26 -7 33 16 6 27 -1 27 -19z m230 1 c0 -8
-9 -15 -20 -15 -11 0 -20 7 -20 15 0 8 9 15 20 15 11 0 20 -7 20 -15z"/>
<path d="M864 555 c-4 -9 -2 -21 4 -27 15 -15 44 -1 40 19 -4 23 -36 29 -44 8z"/>
<path d="M1207 557 c-3 -8 -2 -20 3 -27 11 -18 42 -4 38 17 -4 22 -34 29 -41
10z"/>
<path d="M1335 531 c-6 -11 9 -23 19 -14 9 9 7 23 -3 23 -6 0 -12 -4 -16 -9z"/>
</g>
</svg>
